# MagicaVoxel @ Ephtracy

# group
g tiled

# material
mtllib tiled.mtl
usemtl palette

# normals
vn -1 0 0
vn 1 0 0
vn 0 0 1
vn 0 0 -1
vn 0 -1 0
vn 0 1 0

# texcoords
vt 0.349609 0.5
vt 0.353516 0.5
vt 0.357422 0.5
vt 0.361328 0.5

# verts
v -10 0 10
v -10 0 -10
v -10 1 10
v -10 1 -10
v 10 0 10
v 10 0 -10
v 10 1 10
v 10 1 -10
v -10 0 10
v -10 1 10
v 10 0 10
v 10 1 10
v -10 0 -10
v -10 1 -10
v 10 0 -10
v 10 1 -10
v -10 0 10
v 10 0 10
v -9 0 9
v 9 0 9
v -8 0 8
v -7 0 8
v 1 0 8
v 2 0 8
v 5 0 8
v 7 0 8
v -8 0 7
v -7 0 7
v 1 0 7
v 2 0 7
v 5 0 6
v 7 0 6
v -3 0 5
v -1 0 5
v 6 0 4
v 7 0 4
v -8 0 3
v -6 0 3
v -3 0 3
v -1 0 3
v 6 0 3
v 7 0 3
v -8 0 1
v -6 0 1
v 2 0 -0
v 3 0 -0
v 2 0 -1
v 3 0 -1
v -1 0 -2
v 0 0 -2
v -6 0 -3
v -4 0 -3
v -1 0 -3
v 0 0 -3
v -6 0 -5
v -4 0 -5
v 2 0 -6
v 3 0 -6
v 5 0 -6
v 7 0 -6
v -7 0 -7
v -6 0 -7
v 2 0 -7
v 3 0 -7
v -7 0 -8
v -6 0 -8
v 5 0 -8
v 7 0 -8
v -9 0 -9
v 9 0 -9
v -10 0 -10
v 10 0 -10
v -10 1 10
v 10 1 10
v -9 1 9
v 9 1 9
v -8 1 8
v -7 1 8
v 1 1 8
v 2 1 8
v 5 1 8
v 7 1 8
v -8 1 7
v -7 1 7
v 1 1 7
v 2 1 7
v 5 1 6
v 7 1 6
v -3 1 5
v -1 1 5
v 6 1 4
v 7 1 4
v -8 1 3
v -6 1 3
v -3 1 3
v -1 1 3
v 6 1 3
v 7 1 3
v -8 1 1
v -6 1 1
v 2 1 -0
v 3 1 -0
v 2 1 -1
v 3 1 -1
v -1 1 -2
v 0 1 -2
v -6 1 -3
v -4 1 -3
v -1 1 -3
v 0 1 -3
v -6 1 -5
v -4 1 -5
v 2 1 -6
v 3 1 -6
v 5 1 -6
v 7 1 -6
v -7 1 -7
v -6 1 -7
v 2 1 -7
v 3 1 -7
v -7 1 -8
v -6 1 -8
v 5 1 -8
v 7 1 -8
v -9 1 -9
v 9 1 -9
v -10 1 -10
v 10 1 -10

# faces
f 3/3/1 2/3/1 1/3/1
f 4/3/1 2/3/1 3/3/1
f 5/3/2 6/3/2 7/3/2
f 7/3/2 6/3/2 8/3/2
f 11/3/3 10/3/3 9/3/3
f 12/3/3 10/3/3 11/3/3
f 13/3/4 14/3/4 15/3/4
f 15/3/4 14/3/4 16/3/4
f 19/3/5 18/3/5 17/3/5
f 20/3/5 18/3/5 19/3/5
f 21/4/5 20/4/5 19/4/5
f 22/4/5 20/4/5 21/4/5
f 23/4/5 20/4/5 22/4/5
f 24/4/5 20/4/5 23/4/5
f 25/4/5 20/4/5 24/4/5
f 26/4/5 20/4/5 25/4/5
f 27/4/5 21/4/5 19/4/5
f 27/2/5 22/2/5 21/2/5
f 28/4/5 23/4/5 22/4/5
f 28/2/5 22/2/5 27/2/5
f 29/1/5 24/1/5 23/1/5
f 29/4/5 23/4/5 28/4/5
f 30/4/5 25/4/5 24/4/5
f 30/1/5 24/1/5 29/1/5
f 31/2/5 26/2/5 25/2/5
f 31/4/5 25/4/5 30/4/5
f 31/4/5 30/4/5 29/4/5
f 31/4/5 29/4/5 28/4/5
f 31/4/5 28/4/5 27/4/5
f 32/4/5 20/4/5 26/4/5
f 32/2/5 26/2/5 31/2/5
f 33/4/5 31/4/5 27/4/5
f 33/4/5 32/4/5 31/4/5
f 34/4/5 32/4/5 33/4/5
f 35/4/5 32/4/5 34/4/5
f 36/4/5 20/4/5 32/4/5
f 36/4/5 32/4/5 35/4/5
f 37/4/5 27/4/5 19/4/5
f 37/4/5 33/4/5 27/4/5
f 38/4/5 33/4/5 37/4/5
f 39/2/5 34/2/5 33/2/5
f 39/4/5 33/4/5 38/4/5
f 40/4/5 35/4/5 34/4/5
f 40/2/5 34/2/5 39/2/5
f 41/1/5 36/1/5 35/1/5
f 41/4/5 35/4/5 40/4/5
f 42/4/5 20/4/5 36/4/5
f 42/1/5 36/1/5 41/1/5
f 43/1/5 38/1/5 37/1/5
f 43/4/5 37/4/5 19/4/5
f 44/4/5 39/4/5 38/4/5
f 44/1/5 38/1/5 43/1/5
f 44/4/5 41/4/5 40/4/5
f 44/4/5 42/4/5 41/4/5
f 44/4/5 40/4/5 39/4/5
f 45/4/5 44/4/5 43/4/5
f 45/4/5 42/4/5 44/4/5
f 46/4/5 42/4/5 45/4/5
f 47/4/5 45/4/5 43/4/5
f 47/2/5 46/2/5 45/2/5
f 48/4/5 42/4/5 46/4/5
f 48/2/5 46/2/5 47/2/5
f 49/4/5 47/4/5 43/4/5
f 49/4/5 48/4/5 47/4/5
f 50/4/5 48/4/5 49/4/5
f 51/4/5 49/4/5 43/4/5
f 52/4/5 49/4/5 51/4/5
f 53/1/5 50/1/5 49/1/5
f 53/4/5 49/4/5 52/4/5
f 54/4/5 48/4/5 50/4/5
f 54/1/5 50/1/5 53/1/5
f 55/2/5 52/2/5 51/2/5
f 55/4/5 51/4/5 43/4/5
f 56/4/5 53/4/5 52/4/5
f 56/2/5 52/2/5 55/2/5
f 56/4/5 54/4/5 53/4/5
f 57/4/5 48/4/5 54/4/5
f 57/4/5 54/4/5 56/4/5
f 57/4/5 56/4/5 55/4/5
f 58/4/5 42/4/5 48/4/5
f 58/4/5 48/4/5 57/4/5
f 59/4/5 42/4/5 58/4/5
f 60/4/5 20/4/5 42/4/5
f 60/4/5 42/4/5 59/4/5
f 61/4/5 57/4/5 55/4/5
f 61/4/5 55/4/5 43/4/5
f 62/4/5 57/4/5 61/4/5
f 63/1/5 58/1/5 57/1/5
f 63/4/5 57/4/5 62/4/5
f 64/4/5 59/4/5 58/4/5
f 64/1/5 58/1/5 63/1/5
f 65/1/5 62/1/5 61/1/5
f 65/4/5 61/4/5 43/4/5
f 66/4/5 63/4/5 62/4/5
f 66/1/5 62/1/5 65/1/5
f 66/4/5 64/4/5 63/4/5
f 67/2/5 60/2/5 59/2/5
f 67/4/5 64/4/5 66/4/5
f 67/4/5 59/4/5 64/4/5
f 68/4/5 20/4/5 60/4/5
f 68/2/5 60/2/5 67/2/5
f 69/3/5 19/3/5 17/3/5
f 69/4/5 43/4/5 19/4/5
f 69/4/5 68/4/5 67/4/5
f 69/4/5 66/4/5 65/4/5
f 69/4/5 67/4/5 66/4/5
f 69/4/5 65/4/5 43/4/5
f 70/4/5 20/4/5 68/4/5
f 70/4/5 68/4/5 69/4/5
f 70/3/5 18/3/5 20/3/5
f 71/3/5 69/3/5 17/3/5
f 71/3/5 70/3/5 69/3/5
f 72/3/5 18/3/5 70/3/5
f 72/3/5 70/3/5 71/3/5
f 73/3/6 74/3/6 75/3/6
f 75/3/6 74/3/6 76/3/6
f 75/4/6 76/4/6 77/4/6
f 77/4/6 76/4/6 78/4/6
f 78/4/6 76/4/6 79/4/6
f 79/4/6 76/4/6 80/4/6
f 80/4/6 76/4/6 81/4/6
f 81/4/6 76/4/6 82/4/6
f 75/4/6 77/4/6 83/4/6
f 77/2/6 78/2/6 83/2/6
f 78/4/6 79/4/6 84/4/6
f 83/2/6 78/2/6 84/2/6
f 79/1/6 80/1/6 85/1/6
f 84/4/6 79/4/6 85/4/6
f 80/4/6 81/4/6 86/4/6
f 85/1/6 80/1/6 86/1/6
f 81/2/6 82/2/6 87/2/6
f 86/4/6 81/4/6 87/4/6
f 85/4/6 86/4/6 87/4/6
f 84/4/6 85/4/6 87/4/6
f 83/4/6 84/4/6 87/4/6
f 82/4/6 76/4/6 88/4/6
f 87/2/6 82/2/6 88/2/6
f 83/4/6 87/4/6 89/4/6
f 87/4/6 88/4/6 89/4/6
f 89/4/6 88/4/6 90/4/6
f 90/4/6 88/4/6 91/4/6
f 88/4/6 76/4/6 92/4/6
f 91/4/6 88/4/6 92/4/6
f 75/4/6 83/4/6 93/4/6
f 83/4/6 89/4/6 93/4/6
f 93/4/6 89/4/6 94/4/6
f 89/2/6 90/2/6 95/2/6
f 94/4/6 89/4/6 95/4/6
f 90/4/6 91/4/6 96/4/6
f 95/2/6 90/2/6 96/2/6
f 91/1/6 92/1/6 97/1/6
f 96/4/6 91/4/6 97/4/6
f 92/4/6 76/4/6 98/4/6
f 97/1/6 92/1/6 98/1/6
f 93/1/6 94/1/6 99/1/6
f 75/4/6 93/4/6 99/4/6
f 94/4/6 95/4/6 100/4/6
f 99/1/6 94/1/6 100/1/6
f 96/4/6 97/4/6 100/4/6
f 97/4/6 98/4/6 100/4/6
f 95/4/6 96/4/6 100/4/6
f 99/4/6 100/4/6 101/4/6
f 100/4/6 98/4/6 101/4/6
f 101/4/6 98/4/6 102/4/6
f 99/4/6 101/4/6 103/4/6
f 101/2/6 102/2/6 103/2/6
f 102/4/6 98/4/6 104/4/6
f 103/2/6 102/2/6 104/2/6
f 99/4/6 103/4/6 105/4/6
f 103/4/6 104/4/6 105/4/6
f 105/4/6 104/4/6 106/4/6
f 99/4/6 105/4/6 107/4/6
f 107/4/6 105/4/6 108/4/6
f 105/1/6 106/1/6 109/1/6
f 108/4/6 105/4/6 109/4/6
f 106/4/6 104/4/6 110/4/6
f 109/1/6 106/1/6 110/1/6
f 107/2/6 108/2/6 111/2/6
f 99/4/6 107/4/6 111/4/6
f 108/4/6 109/4/6 112/4/6
f 111/2/6 108/2/6 112/2/6
f 109/4/6 110/4/6 112/4/6
f 110/4/6 104/4/6 113/4/6
f 112/4/6 110/4/6 113/4/6
f 111/4/6 112/4/6 113/4/6
f 104/4/6 98/4/6 114/4/6
f 113/4/6 104/4/6 114/4/6
f 114/4/6 98/4/6 115/4/6
f 98/4/6 76/4/6 116/4/6
f 115/4/6 98/4/6 116/4/6
f 111/4/6 113/4/6 117/4/6
f 99/4/6 111/4/6 117/4/6
f 117/4/6 113/4/6 118/4/6
f 113/1/6 114/1/6 119/1/6
f 118/4/6 113/4/6 119/4/6
f 114/4/6 115/4/6 120/4/6
f 119/1/6 114/1/6 120/1/6
f 117/1/6 118/1/6 121/1/6
f 99/4/6 117/4/6 121/4/6
f 118/4/6 119/4/6 122/4/6
f 121/1/6 118/1/6 122/1/6
f 119/4/6 120/4/6 122/4/6
f 115/2/6 116/2/6 123/2/6
f 122/4/6 120/4/6 123/4/6
f 120/4/6 115/4/6 123/4/6
f 116/4/6 76/4/6 124/4/6
f 123/2/6 116/2/6 124/2/6
f 73/3/6 75/3/6 125/3/6
f 75/4/6 99/4/6 125/4/6
f 123/4/6 124/4/6 125/4/6
f 121/4/6 122/4/6 125/4/6
f 122/4/6 123/4/6 125/4/6
f 99/4/6 121/4/6 125/4/6
f 124/4/6 76/4/6 126/4/6
f 125/4/6 124/4/6 126/4/6
f 76/3/6 74/3/6 126/3/6
f 73/3/6 125/3/6 127/3/6
f 125/3/6 126/3/6 127/3/6
f 126/3/6 74/3/6 128/3/6
f 127/3/6 126/3/6 128/3/6
