# MagicaVoxel @ Ephtracy

# group
g tv

# material
mtllib tv.mtl
usemtl palette

# normals
vn -1 0 0
vn 1 0 0
vn 0 0 1
vn 0 0 -1
vn 0 -1 0
vn 0 1 0

# texcoords
vt 0.751953 0.5
vt 0.966797 0.5
vt 0.994141 0.5

# verts
v -9 0 9
v -9 0 -7
v -9 15 9
v -9 15 -7
v -8 2 10
v -8 2 9
v -8 14 10
v -8 14 9
v -8 18 5
v -8 18 4
v -8 20 5
v -8 20 4
v -7 0 10
v -7 0 9
v -7 1 10
v -7 1 9
v -7 2 -7
v -7 2 -8
v -7 13 -7
v -7 13 -8
v -7 17 5
v -7 17 4
v -7 18 5
v -7 18 4
v -6 16 5
v -6 16 4
v -6 17 5
v -6 17 4
v -5 0 10
v -5 0 9
v -5 1 10
v -5 1 9
v -5 4 -8
v -5 4 -9
v -5 11 -8
v -5 11 -9
v -5 15 5
v -5 15 4
v -5 16 5
v -5 16 4
v -4 5 -9
v -4 5 -10
v -4 10 -9
v -4 10 -10
v -3 0 10
v -3 0 9
v -3 1 10
v -3 1 9
v -1 0 10
v -1 0 9
v -1 1 10
v -1 1 9
v 1 0 10
v 1 0 9
v 1 1 10
v 1 1 9
v 3 0 10
v 3 0 9
v 3 1 10
v 3 1 9
v 3 15 5
v 3 15 4
v 3 16 5
v 3 16 4
v 4 16 5
v 4 16 4
v 4 17 5
v 4 17 4
v 5 0 10
v 5 0 9
v 5 1 10
v 5 1 9
v 5 17 5
v 5 17 4
v 5 18 5
v 5 18 4
v 6 18 5
v 6 18 4
v 6 19 5
v 6 19 4
v 7 19 5
v 7 19 4
v 7 20 5
v 7 20 4
v -7 19 5
v -7 19 4
v -7 20 5
v -7 20 4
v -6 0 10
v -6 0 9
v -6 1 10
v -6 1 9
v -6 18 5
v -6 18 4
v -6 19 5
v -6 19 4
v -5 17 5
v -5 17 4
v -5 18 5
v -5 18 4
v -4 0 10
v -4 0 9
v -4 1 10
v -4 1 9
v -4 16 5
v -4 16 4
v -4 17 5
v -4 17 4
v -3 15 5
v -3 15 4
v -3 16 5
v -3 16 4
v -2 0 10
v -2 0 9
v -2 1 10
v -2 1 9
v 0 0 10
v 0 0 9
v 0 1 10
v 0 1 9
v 2 0 10
v 2 0 9
v 2 1 10
v 2 1 9
v 4 0 10
v 4 0 9
v 4 1 10
v 4 1 9
v 4 5 -9
v 4 5 -10
v 4 10 -9
v 4 10 -10
v 5 4 -8
v 5 4 -9
v 5 11 -8
v 5 11 -9
v 5 15 5
v 5 15 4
v 5 16 5
v 5 16 4
v 6 16 5
v 6 16 4
v 6 17 5
v 6 17 4
v 7 0 10
v 7 0 9
v 7 1 10
v 7 1 9
v 7 2 -7
v 7 2 -8
v 7 13 -7
v 7 13 -8
v 7 17 5
v 7 17 4
v 7 18 5
v 7 18 4
v 8 2 10
v 8 2 9
v 8 14 10
v 8 14 9
v 8 18 5
v 8 18 4
v 8 20 5
v 8 20 4
v 9 0 9
v 9 0 -7
v 9 15 9
v 9 15 -7
v -8 2 10
v -8 14 10
v -7 0 10
v -7 1 10
v -6 0 10
v -6 1 10
v -5 0 10
v -5 1 10
v -4 0 10
v -4 1 10
v -3 0 10
v -3 1 10
v -2 0 10
v -2 1 10
v -1 0 10
v -1 1 10
v 0 0 10
v 0 1 10
v 1 0 10
v 1 1 10
v 2 0 10
v 2 1 10
v 3 0 10
v 3 1 10
v 4 0 10
v 4 1 10
v 5 0 10
v 5 1 10
v 7 0 10
v 7 1 10
v 8 2 10
v 8 14 10
v -9 0 9
v -9 15 9
v -8 2 9
v -8 14 9
v -7 0 9
v -7 1 9
v -6 0 9
v -6 1 9
v -5 0 9
v -5 1 9
v -4 0 9
v -4 1 9
v -3 0 9
v -3 1 9
v -2 0 9
v -2 1 9
v -1 0 9
v -1 1 9
v 0 0 9
v 0 1 9
v 1 0 9
v 1 1 9
v 2 0 9
v 2 1 9
v 3 0 9
v 3 1 9
v 4 0 9
v 4 1 9
v 5 0 9
v 5 1 9
v 7 0 9
v 7 1 9
v 8 2 9
v 8 14 9
v 9 0 9
v 9 15 9
v -8 18 5
v -8 20 5
v -7 17 5
v -7 18 5
v -7 19 5
v -7 20 5
v -6 16 5
v -6 17 5
v -6 18 5
v -6 19 5
v -5 15 5
v -5 16 5
v -5 17 5
v -5 18 5
v -4 16 5
v -4 17 5
v -3 15 5
v -3 16 5
v 3 15 5
v 3 16 5
v 4 16 5
v 4 17 5
v 5 15 5
v 5 16 5
v 5 17 5
v 5 18 5
v 6 16 5
v 6 17 5
v 6 18 5
v 6 19 5
v 7 17 5
v 7 18 5
v 7 19 5
v 7 20 5
v 8 18 5
v 8 20 5
v -8 18 4
v -8 20 4
v -7 17 4
v -7 18 4
v -7 19 4
v -7 20 4
v -6 16 4
v -6 17 4
v -6 18 4
v -6 19 4
v -5 15 4
v -5 16 4
v -5 17 4
v -5 18 4
v -4 16 4
v -4 17 4
v -3 15 4
v -3 16 4
v 3 15 4
v 3 16 4
v 4 16 4
v 4 17 4
v 5 15 4
v 5 16 4
v 5 17 4
v 5 18 4
v 6 16 4
v 6 17 4
v 6 18 4
v 6 19 4
v 7 17 4
v 7 18 4
v 7 19 4
v 7 20 4
v 8 18 4
v 8 20 4
v -9 0 -7
v -9 15 -7
v -7 2 -7
v -7 13 -7
v 7 2 -7
v 7 13 -7
v 9 0 -7
v 9 15 -7
v -7 2 -8
v -7 13 -8
v -5 4 -8
v -5 11 -8
v 5 4 -8
v 5 11 -8
v 7 2 -8
v 7 13 -8
v -5 4 -9
v -5 11 -9
v -4 5 -9
v -4 10 -9
v 4 5 -9
v 4 10 -9
v 5 4 -9
v 5 11 -9
v -4 5 -10
v -4 10 -10
v 4 5 -10
v 4 10 -10
v -7 0 10
v -6 0 10
v -5 0 10
v -4 0 10
v -3 0 10
v -2 0 10
v -1 0 10
v 0 0 10
v 1 0 10
v 2 0 10
v 3 0 10
v 4 0 10
v 5 0 10
v 7 0 10
v -9 0 9
v -7 0 9
v -6 0 9
v -5 0 9
v -4 0 9
v -3 0 9
v -2 0 9
v -1 0 9
v 0 0 9
v 1 0 9
v 2 0 9
v 3 0 9
v 4 0 9
v 5 0 9
v 7 0 9
v 9 0 9
v -9 0 -7
v 9 0 -7
v -8 2 10
v 8 2 10
v -8 2 9
v 8 2 9
v -7 2 -7
v 7 2 -7
v -7 2 -8
v 7 2 -8
v -5 4 -8
v 5 4 -8
v -5 4 -9
v 5 4 -9
v -4 5 -9
v 4 5 -9
v -4 5 -10
v 4 5 -10
v -6 16 5
v -5 16 5
v 5 16 5
v 6 16 5
v -6 16 4
v -5 16 4
v 5 16 4
v 6 16 4
v -7 17 5
v -6 17 5
v 6 17 5
v 7 17 5
v -7 17 4
v -6 17 4
v 6 17 4
v 7 17 4
v -8 18 5
v -7 18 5
v 7 18 5
v 8 18 5
v -8 18 4
v -7 18 4
v 7 18 4
v 8 18 4
v -7 1 10
v -6 1 10
v -5 1 10
v -4 1 10
v -3 1 10
v -2 1 10
v -1 1 10
v 0 1 10
v 1 1 10
v 2 1 10
v 3 1 10
v 4 1 10
v 5 1 10
v 7 1 10
v -7 1 9
v -6 1 9
v -5 1 9
v -4 1 9
v -3 1 9
v -2 1 9
v -1 1 9
v 0 1 9
v 1 1 9
v 2 1 9
v 3 1 9
v 4 1 9
v 5 1 9
v 7 1 9
v -4 10 -9
v 4 10 -9
v -4 10 -10
v 4 10 -10
v -5 11 -8
v 5 11 -8
v -5 11 -9
v 5 11 -9
v -7 13 -7
v 7 13 -7
v -7 13 -8
v 7 13 -8
v -8 14 10
v 8 14 10
v -8 14 9
v 8 14 9
v -9 15 9
v 9 15 9
v -5 15 5
v -3 15 5
v 3 15 5
v 5 15 5
v -5 15 4
v -3 15 4
v 3 15 4
v 5 15 4
v -9 15 -7
v 9 15 -7
v -4 16 5
v -3 16 5
v 3 16 5
v 4 16 5
v -4 16 4
v -3 16 4
v 3 16 4
v 4 16 4
v -5 17 5
v -4 17 5
v 4 17 5
v 5 17 5
v -5 17 4
v -4 17 4
v 4 17 4
v 5 17 4
v -6 18 5
v -5 18 5
v 5 18 5
v 6 18 5
v -6 18 4
v -5 18 4
v 5 18 4
v 6 18 4
v -7 19 5
v -6 19 5
v 6 19 5
v 7 19 5
v -7 19 4
v -6 19 4
v 6 19 4
v 7 19 4
v -8 20 5
v -7 20 5
v 7 20 5
v 8 20 5
v -8 20 4
v -7 20 4
v 7 20 4
v 8 20 4

# faces
f 3/3/1 2/3/1 1/3/1
f 4/3/1 2/3/1 3/3/1
f 7/1/1 6/1/1 5/1/1
f 8/1/1 6/1/1 7/1/1
f 11/3/1 10/3/1 9/3/1
f 12/3/1 10/3/1 11/3/1
f 15/2/1 14/2/1 13/2/1
f 16/2/1 14/2/1 15/2/1
f 19/3/1 18/3/1 17/3/1
f 20/3/1 18/3/1 19/3/1
f 23/3/1 22/3/1 21/3/1
f 24/3/1 22/3/1 23/3/1
f 27/3/1 26/3/1 25/3/1
f 28/3/1 26/3/1 27/3/1
f 31/2/1 30/2/1 29/2/1
f 32/2/1 30/2/1 31/2/1
f 35/3/1 34/3/1 33/3/1
f 36/3/1 34/3/1 35/3/1
f 39/3/1 38/3/1 37/3/1
f 40/3/1 38/3/1 39/3/1
f 43/3/1 42/3/1 41/3/1
f 44/3/1 42/3/1 43/3/1
f 47/2/1 46/2/1 45/2/1
f 48/2/1 46/2/1 47/2/1
f 51/2/1 50/2/1 49/2/1
f 52/2/1 50/2/1 51/2/1
f 55/2/1 54/2/1 53/2/1
f 56/2/1 54/2/1 55/2/1
f 59/2/1 58/2/1 57/2/1
f 60/2/1 58/2/1 59/2/1
f 63/3/1 62/3/1 61/3/1
f 64/3/1 62/3/1 63/3/1
f 67/3/1 66/3/1 65/3/1
f 68/3/1 66/3/1 67/3/1
f 71/2/1 70/2/1 69/2/1
f 72/2/1 70/2/1 71/2/1
f 75/3/1 74/3/1 73/3/1
f 76/3/1 74/3/1 75/3/1
f 79/3/1 78/3/1 77/3/1
f 80/3/1 78/3/1 79/3/1
f 83/3/1 82/3/1 81/3/1
f 84/3/1 82/3/1 83/3/1
f 85/3/2 86/3/2 87/3/2
f 87/3/2 86/3/2 88/3/2
f 89/2/2 90/2/2 91/2/2
f 91/2/2 90/2/2 92/2/2
f 93/3/2 94/3/2 95/3/2
f 95/3/2 94/3/2 96/3/2
f 97/3/2 98/3/2 99/3/2
f 99/3/2 98/3/2 100/3/2
f 101/2/2 102/2/2 103/2/2
f 103/2/2 102/2/2 104/2/2
f 105/3/2 106/3/2 107/3/2
f 107/3/2 106/3/2 108/3/2
f 109/3/2 110/3/2 111/3/2
f 111/3/2 110/3/2 112/3/2
f 113/2/2 114/2/2 115/2/2
f 115/2/2 114/2/2 116/2/2
f 117/2/2 118/2/2 119/2/2
f 119/2/2 118/2/2 120/2/2
f 121/2/2 122/2/2 123/2/2
f 123/2/2 122/2/2 124/2/2
f 125/2/2 126/2/2 127/2/2
f 127/2/2 126/2/2 128/2/2
f 129/3/2 130/3/2 131/3/2
f 131/3/2 130/3/2 132/3/2
f 133/3/2 134/3/2 135/3/2
f 135/3/2 134/3/2 136/3/2
f 137/3/2 138/3/2 139/3/2
f 139/3/2 138/3/2 140/3/2
f 141/3/2 142/3/2 143/3/2
f 143/3/2 142/3/2 144/3/2
f 145/2/2 146/2/2 147/2/2
f 147/2/2 146/2/2 148/2/2
f 149/3/2 150/3/2 151/3/2
f 151/3/2 150/3/2 152/3/2
f 153/3/2 154/3/2 155/3/2
f 155/3/2 154/3/2 156/3/2
f 157/1/2 158/1/2 159/1/2
f 159/1/2 158/1/2 160/1/2
f 161/3/2 162/3/2 163/3/2
f 163/3/2 162/3/2 164/3/2
f 165/3/2 166/3/2 167/3/2
f 167/3/2 166/3/2 168/3/2
f 173/2/3 172/2/3 171/2/3
f 174/2/3 172/2/3 173/2/3
f 177/2/3 176/2/3 175/2/3
f 178/2/3 176/2/3 177/2/3
f 181/2/3 180/2/3 179/2/3
f 182/2/3 180/2/3 181/2/3
f 185/2/3 184/2/3 183/2/3
f 186/2/3 184/2/3 185/2/3
f 189/2/3 188/2/3 187/2/3
f 190/2/3 188/2/3 189/2/3
f 193/2/3 192/2/3 191/2/3
f 194/2/3 192/2/3 193/2/3
f 197/2/3 196/2/3 195/2/3
f 198/2/3 196/2/3 197/2/3
f 199/1/3 170/1/3 169/1/3
f 200/1/3 170/1/3 199/1/3
f 203/3/3 202/3/3 201/3/3
f 204/3/3 202/3/3 203/3/3
f 205/3/3 203/3/3 201/3/3
f 206/3/3 203/3/3 205/3/3
f 208/3/3 203/3/3 206/3/3
f 209/3/3 208/3/3 207/3/3
f 210/3/3 203/3/3 208/3/3
f 210/3/3 208/3/3 209/3/3
f 212/3/3 203/3/3 210/3/3
f 213/3/3 212/3/3 211/3/3
f 214/3/3 203/3/3 212/3/3
f 214/3/3 212/3/3 213/3/3
f 216/3/3 203/3/3 214/3/3
f 217/3/3 216/3/3 215/3/3
f 218/3/3 203/3/3 216/3/3
f 218/3/3 216/3/3 217/3/3
f 220/3/3 203/3/3 218/3/3
f 221/3/3 220/3/3 219/3/3
f 222/3/3 203/3/3 220/3/3
f 222/3/3 220/3/3 221/3/3
f 224/3/3 203/3/3 222/3/3
f 225/3/3 224/3/3 223/3/3
f 226/3/3 203/3/3 224/3/3
f 226/3/3 224/3/3 225/3/3
f 228/3/3 203/3/3 226/3/3
f 229/3/3 228/3/3 227/3/3
f 230/3/3 203/3/3 228/3/3
f 230/3/3 228/3/3 229/3/3
f 232/3/3 203/3/3 230/3/3
f 233/3/3 203/3/3 232/3/3
f 233/3/3 232/3/3 231/3/3
f 234/3/3 202/3/3 204/3/3
f 235/3/3 233/3/3 231/3/3
f 235/3/3 234/3/3 233/3/3
f 236/3/3 202/3/3 234/3/3
f 236/3/3 234/3/3 235/3/3
f 240/3/3 238/3/3 237/3/3
f 241/3/3 238/3/3 240/3/3
f 242/3/3 238/3/3 241/3/3
f 244/3/3 240/3/3 239/3/3
f 244/3/3 241/3/3 240/3/3
f 245/3/3 241/3/3 244/3/3
f 246/3/3 241/3/3 245/3/3
f 248/3/3 244/3/3 243/3/3
f 248/3/3 245/3/3 244/3/3
f 249/3/3 245/3/3 248/3/3
f 250/3/3 245/3/3 249/3/3
f 251/3/3 248/3/3 247/3/3
f 251/3/3 249/3/3 248/3/3
f 252/3/3 249/3/3 251/3/3
f 253/3/3 251/3/3 247/3/3
f 254/3/3 251/3/3 253/3/3
f 257/3/3 256/3/3 255/3/3
f 259/3/3 257/3/3 255/3/3
f 259/3/3 258/3/3 257/3/3
f 260/3/3 258/3/3 259/3/3
f 261/3/3 258/3/3 260/3/3
f 263/3/3 261/3/3 260/3/3
f 263/3/3 262/3/3 261/3/3
f 264/3/3 262/3/3 263/3/3
f 265/3/3 262/3/3 264/3/3
f 267/3/3 265/3/3 264/3/3
f 267/3/3 266/3/3 265/3/3
f 268/3/3 266/3/3 267/3/3
f 269/3/3 266/3/3 268/3/3
f 271/3/3 269/3/3 268/3/3
f 271/3/3 270/3/3 269/3/3
f 272/3/3 270/3/3 271/3/3
f 273/3/4 274/3/4 276/3/4
f 276/3/4 274/3/4 277/3/4
f 277/3/4 274/3/4 278/3/4
f 275/3/4 276/3/4 280/3/4
f 276/3/4 277/3/4 280/3/4
f 280/3/4 277/3/4 281/3/4
f 281/3/4 277/3/4 282/3/4
f 279/3/4 280/3/4 284/3/4
f 280/3/4 281/3/4 284/3/4
f 284/3/4 281/3/4 285/3/4
f 285/3/4 281/3/4 286/3/4
f 283/3/4 284/3/4 287/3/4
f 284/3/4 285/3/4 287/3/4
f 287/3/4 285/3/4 288/3/4
f 283/3/4 287/3/4 289/3/4
f 289/3/4 287/3/4 290/3/4
f 291/3/4 292/3/4 293/3/4
f 291/3/4 293/3/4 295/3/4
f 293/3/4 294/3/4 295/3/4
f 295/3/4 294/3/4 296/3/4
f 296/3/4 294/3/4 297/3/4
f 296/3/4 297/3/4 299/3/4
f 297/3/4 298/3/4 299/3/4
f 299/3/4 298/3/4 300/3/4
f 300/3/4 298/3/4 301/3/4
f 300/3/4 301/3/4 303/3/4
f 301/3/4 302/3/4 303/3/4
f 303/3/4 302/3/4 304/3/4
f 304/3/4 302/3/4 305/3/4
f 304/3/4 305/3/4 307/3/4
f 305/3/4 306/3/4 307/3/4
f 307/3/4 306/3/4 308/3/4
f 309/3/4 310/3/4 311/3/4
f 311/3/4 310/3/4 312/3/4
f 309/3/4 311/3/4 313/3/4
f 312/3/4 310/3/4 314/3/4
f 309/3/4 313/3/4 315/3/4
f 313/3/4 314/3/4 315/3/4
f 314/3/4 310/3/4 316/3/4
f 315/3/4 314/3/4 316/3/4
f 317/3/4 318/3/4 319/3/4
f 319/3/4 318/3/4 320/3/4
f 317/3/4 319/3/4 321/3/4
f 320/3/4 318/3/4 322/3/4
f 317/3/4 321/3/4 323/3/4
f 321/3/4 322/3/4 323/3/4
f 322/3/4 318/3/4 324/3/4
f 323/3/4 322/3/4 324/3/4
f 325/3/4 326/3/4 327/3/4
f 327/3/4 326/3/4 328/3/4
f 325/3/4 327/3/4 329/3/4
f 328/3/4 326/3/4 330/3/4
f 325/3/4 329/3/4 331/3/4
f 329/3/4 330/3/4 331/3/4
f 330/3/4 326/3/4 332/3/4
f 331/3/4 330/3/4 332/3/4
f 333/3/4 334/3/4 335/3/4
f 335/3/4 334/3/4 336/3/4
f 352/2/5 338/2/5 337/2/5
f 353/2/5 338/2/5 352/2/5
f 354/2/5 340/2/5 339/2/5
f 355/2/5 340/2/5 354/2/5
f 356/2/5 342/2/5 341/2/5
f 357/2/5 342/2/5 356/2/5
f 358/2/5 344/2/5 343/2/5
f 359/2/5 344/2/5 358/2/5
f 360/2/5 346/2/5 345/2/5
f 361/2/5 346/2/5 360/2/5
f 362/2/5 348/2/5 347/2/5
f 363/2/5 348/2/5 362/2/5
f 364/2/5 350/2/5 349/2/5
f 365/2/5 350/2/5 364/2/5
f 367/3/5 363/3/5 362/3/5
f 367/3/5 366/3/5 365/3/5
f 367/3/5 365/3/5 364/3/5
f 367/3/5 364/3/5 363/3/5
f 367/3/5 353/3/5 352/3/5
f 367/3/5 362/3/5 361/3/5
f 367/3/5 355/3/5 354/3/5
f 367/3/5 360/3/5 359/3/5
f 367/3/5 357/3/5 356/3/5
f 367/3/5 358/3/5 357/3/5
f 367/3/5 359/3/5 358/3/5
f 367/3/5 356/3/5 355/3/5
f 367/3/5 361/3/5 360/3/5
f 367/3/5 354/3/5 353/3/5
f 367/3/5 352/3/5 351/3/5
f 368/3/5 366/3/5 367/3/5
f 371/1/5 370/1/5 369/1/5
f 372/1/5 370/1/5 371/1/5
f 375/3/5 374/3/5 373/3/5
f 376/3/5 374/3/5 375/3/5
f 379/3/5 378/3/5 377/3/5
f 380/3/5 378/3/5 379/3/5
f 383/3/5 382/3/5 381/3/5
f 384/3/5 382/3/5 383/3/5
f 389/3/5 386/3/5 385/3/5
f 390/3/5 386/3/5 389/3/5
f 391/3/5 388/3/5 387/3/5
f 392/3/5 388/3/5 391/3/5
f 397/3/5 394/3/5 393/3/5
f 398/3/5 394/3/5 397/3/5
f 399/3/5 396/3/5 395/3/5
f 400/3/5 396/3/5 399/3/5
f 405/3/5 402/3/5 401/3/5
f 406/3/5 402/3/5 405/3/5
f 407/3/5 404/3/5 403/3/5
f 408/3/5 404/3/5 407/3/5
f 409/2/6 410/2/6 423/2/6
f 423/2/6 410/2/6 424/2/6
f 411/2/6 412/2/6 425/2/6
f 425/2/6 412/2/6 426/2/6
f 413/2/6 414/2/6 427/2/6
f 427/2/6 414/2/6 428/2/6
f 415/2/6 416/2/6 429/2/6
f 429/2/6 416/2/6 430/2/6
f 417/2/6 418/2/6 431/2/6
f 431/2/6 418/2/6 432/2/6
f 419/2/6 420/2/6 433/2/6
f 433/2/6 420/2/6 434/2/6
f 421/2/6 422/2/6 435/2/6
f 435/2/6 422/2/6 436/2/6
f 437/3/6 438/3/6 439/3/6
f 439/3/6 438/3/6 440/3/6
f 441/3/6 442/3/6 443/3/6
f 443/3/6 442/3/6 444/3/6
f 445/3/6 446/3/6 447/3/6
f 447/3/6 446/3/6 448/3/6
f 449/1/6 450/1/6 451/1/6
f 451/1/6 450/1/6 452/1/6
f 453/3/6 454/3/6 455/3/6
f 455/3/6 454/3/6 456/3/6
f 456/3/6 454/3/6 457/3/6
f 457/3/6 454/3/6 458/3/6
f 453/3/6 455/3/6 459/3/6
f 456/3/6 457/3/6 460/3/6
f 460/3/6 457/3/6 461/3/6
f 458/3/6 454/3/6 462/3/6
f 460/3/6 461/3/6 463/3/6
f 461/3/6 462/3/6 463/3/6
f 453/3/6 459/3/6 463/3/6
f 459/3/6 460/3/6 463/3/6
f 462/3/6 454/3/6 464/3/6
f 463/3/6 462/3/6 464/3/6
f 465/3/6 466/3/6 469/3/6
f 469/3/6 466/3/6 470/3/6
f 467/3/6 468/3/6 471/3/6
f 471/3/6 468/3/6 472/3/6
f 473/3/6 474/3/6 477/3/6
f 477/3/6 474/3/6 478/3/6
f 475/3/6 476/3/6 479/3/6
f 479/3/6 476/3/6 480/3/6
f 481/3/6 482/3/6 485/3/6
f 485/3/6 482/3/6 486/3/6
f 483/3/6 484/3/6 487/3/6
f 487/3/6 484/3/6 488/3/6
f 489/3/6 490/3/6 493/3/6
f 493/3/6 490/3/6 494/3/6
f 491/3/6 492/3/6 495/3/6
f 495/3/6 492/3/6 496/3/6
f 497/3/6 498/3/6 501/3/6
f 501/3/6 498/3/6 502/3/6
f 499/3/6 500/3/6 503/3/6
f 503/3/6 500/3/6 504/3/6
