# MagicaVoxel @ Ephtracy

# group
g greenjunimo

# material
mtllib greenjunimo.mtl
usemtl palette

# normals
vn -1 0 0
vn 1 0 0
vn 0 0 1
vn 0 0 -1
vn 0 -1 0
vn 0 1 0

# texcoords
vt 0.837891 0.5
vt 0.880859 0.5
vt 0.884766 0.5
vt 0.982422 0.5
vt 0.990234 0.5

# verts
v -4.5 4 0.5
v -4.5 4 -0.5
v -4.5 7 0.5
v -4.5 7 -0.5
v -3.5 0 0.5
v -3.5 0 -0.5
v -3.5 1 0.5
v -3.5 1 -0.5
v -2.5 1 0.5
v -2.5 1 -0.5
v -2.5 2 1.5
v -2.5 2 0.5
v -2.5 2 -0.5
v -2.5 2 -1.5
v -2.5 3 2.5
v -2.5 3 1.5
v -2.5 3 -1.5
v -2.5 3 -2.5
v -2.5 4 2.5
v -2.5 4 1.5
v -2.5 4 0.5
v -2.5 4 -0.5
v -2.5 5 2.5
v -2.5 5 1.5
v -2.5 5 0.5
v -2.5 5 -0.5
v -2.5 6 2.5
v -2.5 6 1.5
v -2.5 6 -1.5
v -2.5 6 -2.5
v -2.5 7 1.5
v -2.5 7 -1.5
v -1.5 2 2.5
v -1.5 2 1.5
v -1.5 2 -1.5
v -1.5 2 -2.5
v -1.5 3 2.5
v -1.5 3 1.5
v -1.5 3 -1.5
v -1.5 3 -2.5
v -1.5 6 2.5
v -1.5 6 1.5
v -1.5 6 -1.5
v -1.5 6 -2.5
v -1.5 7 2.5
v -1.5 7 1.5
v -1.5 7 -1.5
v -1.5 7 -2.5
v -1.5 8 1.5
v -1.5 8 -1.5
v -0.5 8 0.5
v -0.5 8 -0.5
v -0.5 10 0.5
v -0.5 10 -0.5
v 1.5 0 0.5
v 1.5 0 -0.5
v 1.5 2 0.5
v 1.5 2 -0.5
v 3.5 5 0.5
v 3.5 5 -0.5
v 3.5 7 0.5
v 3.5 7 -0.5
v -3.5 5 0.5
v -3.5 5 -0.5
v -3.5 7 0.5
v -3.5 7 -0.5
v -1.5 0 0.5
v -1.5 0 -0.5
v -1.5 2 0.5
v -1.5 2 -0.5
v 0.5 8 0.5
v 0.5 8 -0.5
v 0.5 9 0.5
v 0.5 9 -0.5
v 1.5 2 2.5
v 1.5 2 1.5
v 1.5 2 -1.5
v 1.5 2 -2.5
v 1.5 3 2.5
v 1.5 3 1.5
v 1.5 3 -1.5
v 1.5 3 -2.5
v 1.5 6 2.5
v 1.5 6 1.5
v 1.5 6 -1.5
v 1.5 6 -2.5
v 1.5 7 2.5
v 1.5 7 1.5
v 1.5 7 -1.5
v 1.5 7 -2.5
v 1.5 8 1.5
v 1.5 8 -1.5
v 2.5 1 0.5
v 2.5 1 -0.5
v 2.5 2 1.5
v 2.5 2 0.5
v 2.5 2 -0.5
v 2.5 2 -1.5
v 2.5 3 2.5
v 2.5 3 1.5
v 2.5 3 -1.5
v 2.5 3 -2.5
v 2.5 4 2.5
v 2.5 4 1.5
v 2.5 4 0.5
v 2.5 4 -0.5
v 2.5 5 2.5
v 2.5 5 1.5
v 2.5 5 0.5
v 2.5 5 -0.5
v 2.5 6 2.5
v 2.5 6 1.5
v 2.5 6 -1.5
v 2.5 6 -2.5
v 2.5 7 1.5
v 2.5 7 -1.5
v 2.5 9 0.5
v 2.5 9 -0.5
v 2.5 10 0.5
v 2.5 10 -0.5
v 3.5 0 0.5
v 3.5 0 -0.5
v 3.5 1 0.5
v 3.5 1 -0.5
v 4.5 4 0.5
v 4.5 4 -0.5
v 4.5 7 0.5
v 4.5 7 -0.5
v -2.5 3 2.5
v -2.5 4 2.5
v -2.5 5 2.5
v -2.5 6 2.5
v -1.5 2 2.5
v -1.5 3 2.5
v -1.5 4 2.5
v -1.5 5 2.5
v -1.5 6 2.5
v -1.5 7 2.5
v -0.5 5 2.5
v -0.5 6 2.5
v 0.5 5 2.5
v 0.5 6 2.5
v 1.5 2 2.5
v 1.5 3 2.5
v 1.5 4 2.5
v 1.5 5 2.5
v 1.5 6 2.5
v 1.5 7 2.5
v 2.5 3 2.5
v 2.5 4 2.5
v 2.5 5 2.5
v 2.5 6 2.5
v -2.5 2 1.5
v -2.5 3 1.5
v -2.5 6 1.5
v -2.5 7 1.5
v -1.5 2 1.5
v -1.5 3 1.5
v -1.5 6 1.5
v -1.5 7 1.5
v -1.5 8 1.5
v 1.5 2 1.5
v 1.5 3 1.5
v 1.5 6 1.5
v 1.5 7 1.5
v 1.5 8 1.5
v 2.5 2 1.5
v 2.5 3 1.5
v 2.5 6 1.5
v 2.5 7 1.5
v -4.5 4 0.5
v -4.5 7 0.5
v -3.5 0 0.5
v -3.5 1 0.5
v -3.5 5 0.5
v -3.5 7 0.5
v -2.5 1 0.5
v -2.5 2 0.5
v -2.5 4 0.5
v -2.5 5 0.5
v -1.5 0 0.5
v -1.5 2 0.5
v -0.5 8 0.5
v -0.5 10 0.5
v 0.5 8 0.5
v 0.5 9 0.5
v 1.5 0 0.5
v 1.5 2 0.5
v 1.5 9 0.5
v 1.5 10 0.5
v 2.5 1 0.5
v 2.5 2 0.5
v 2.5 4 0.5
v 2.5 5 0.5
v 2.5 9 0.5
v 2.5 10 0.5
v 3.5 0 0.5
v 3.5 1 0.5
v 3.5 5 0.5
v 3.5 7 0.5
v 4.5 4 0.5
v 4.5 7 0.5
v -4.5 4 -0.5
v -4.5 7 -0.5
v -3.5 0 -0.5
v -3.5 1 -0.5
v -3.5 5 -0.5
v -3.5 7 -0.5
v -2.5 1 -0.5
v -2.5 2 -0.5
v -2.5 4 -0.5
v -2.5 5 -0.5
v -1.5 0 -0.5
v -1.5 2 -0.5
v -0.5 8 -0.5
v -0.5 10 -0.5
v 0.5 8 -0.5
v 0.5 9 -0.5
v 1.5 0 -0.5
v 1.5 2 -0.5
v 1.5 9 -0.5
v 1.5 10 -0.5
v 2.5 1 -0.5
v 2.5 2 -0.5
v 2.5 4 -0.5
v 2.5 5 -0.5
v 2.5 9 -0.5
v 2.5 10 -0.5
v 3.5 0 -0.5
v 3.5 1 -0.5
v 3.5 5 -0.5
v 3.5 7 -0.5
v 4.5 4 -0.5
v 4.5 7 -0.5
v -2.5 2 -1.5
v -2.5 3 -1.5
v -2.5 6 -1.5
v -2.5 7 -1.5
v -1.5 2 -1.5
v -1.5 3 -1.5
v -1.5 6 -1.5
v -1.5 7 -1.5
v -1.5 8 -1.5
v 1.5 2 -1.5
v 1.5 3 -1.5
v 1.5 6 -1.5
v 1.5 7 -1.5
v 1.5 8 -1.5
v 2.5 2 -1.5
v 2.5 3 -1.5
v 2.5 6 -1.5
v 2.5 7 -1.5
v -2.5 3 -2.5
v -2.5 6 -2.5
v -1.5 2 -2.5
v -1.5 3 -2.5
v -1.5 6 -2.5
v -1.5 7 -2.5
v 1.5 2 -2.5
v 1.5 3 -2.5
v 1.5 6 -2.5
v 1.5 7 -2.5
v 2.5 3 -2.5
v 2.5 6 -2.5
v -3.5 0 0.5
v -1.5 0 0.5
v 1.5 0 0.5
v 3.5 0 0.5
v -3.5 0 -0.5
v -1.5 0 -0.5
v 1.5 0 -0.5
v 3.5 0 -0.5
v -1.5 2 2.5
v 1.5 2 2.5
v -2.5 2 1.5
v -1.5 2 1.5
v 1.5 2 1.5
v 2.5 2 1.5
v -2.5 2 0.5
v -1.5 2 0.5
v 1.5 2 0.5
v 2.5 2 0.5
v -2.5 2 -0.5
v -1.5 2 -0.5
v 1.5 2 -0.5
v 2.5 2 -0.5
v -2.5 2 -1.5
v -1.5 2 -1.5
v 1.5 2 -1.5
v 2.5 2 -1.5
v -1.5 2 -2.5
v 1.5 2 -2.5
v -2.5 3 2.5
v -1.5 3 2.5
v 1.5 3 2.5
v 2.5 3 2.5
v -2.5 3 1.5
v -1.5 3 1.5
v 1.5 3 1.5
v 2.5 3 1.5
v -2.5 3 -1.5
v -1.5 3 -1.5
v 1.5 3 -1.5
v 2.5 3 -1.5
v -2.5 3 -2.5
v -1.5 3 -2.5
v 1.5 3 -2.5
v 2.5 3 -2.5
v -4.5 4 0.5
v -2.5 4 0.5
v 2.5 4 0.5
v 4.5 4 0.5
v -4.5 4 -0.5
v -2.5 4 -0.5
v 2.5 4 -0.5
v 4.5 4 -0.5
v 0.5 9 0.5
v 1.5 9 0.5
v 2.5 9 0.5
v 0.5 9 -0.5
v 1.5 9 -0.5
v 2.5 9 -0.5
v -3.5 1 0.5
v -2.5 1 0.5
v 2.5 1 0.5
v 3.5 1 0.5
v -3.5 1 -0.5
v -2.5 1 -0.5
v 2.5 1 -0.5
v 3.5 1 -0.5
v -3.5 5 0.5
v -2.5 5 0.5
v 2.5 5 0.5
v 3.5 5 0.5
v -3.5 5 -0.5
v -2.5 5 -0.5
v 2.5 5 -0.5
v 3.5 5 -0.5
v -2.5 6 2.5
v -1.5 6 2.5
v 1.5 6 2.5
v 2.5 6 2.5
v -2.5 6 1.5
v -1.5 6 1.5
v 1.5 6 1.5
v 2.5 6 1.5
v -2.5 6 -1.5
v -1.5 6 -1.5
v 1.5 6 -1.5
v 2.5 6 -1.5
v -2.5 6 -2.5
v -1.5 6 -2.5
v 1.5 6 -2.5
v 2.5 6 -2.5
v -1.5 7 2.5
v 1.5 7 2.5
v -2.5 7 1.5
v -1.5 7 1.5
v 1.5 7 1.5
v 2.5 7 1.5
v -4.5 7 0.5
v -3.5 7 0.5
v 3.5 7 0.5
v 4.5 7 0.5
v -4.5 7 -0.5
v -3.5 7 -0.5
v 3.5 7 -0.5
v 4.5 7 -0.5
v -2.5 7 -1.5
v -1.5 7 -1.5
v 1.5 7 -1.5
v 2.5 7 -1.5
v -1.5 7 -2.5
v 1.5 7 -2.5
v -1.5 8 1.5
v 1.5 8 1.5
v -0.5 8 0.5
v 0.5 8 0.5
v -0.5 8 -0.5
v 0.5 8 -0.5
v -1.5 8 -1.5
v 1.5 8 -1.5
v -0.5 10 0.5
v 1.5 10 0.5
v 2.5 10 0.5
v -0.5 10 -0.5
v 1.5 10 -0.5
v 2.5 10 -0.5

# faces
f 3/5/1 2/5/1 1/5/1
f 4/5/1 2/5/1 3/5/1
f 7/5/1 6/5/1 5/5/1
f 8/5/1 6/5/1 7/5/1
f 12/5/1 10/5/1 9/5/1
f 13/5/1 10/5/1 12/5/1
f 16/3/1 12/3/1 11/3/1
f 16/3/1 14/3/1 13/3/1
f 16/3/1 13/3/1 12/3/1
f 17/3/1 14/3/1 16/3/1
f 19/3/1 16/3/1 15/3/1
f 19/3/1 18/3/1 17/3/1
f 19/3/1 17/3/1 16/3/1
f 20/3/1 18/3/1 19/3/1
f 21/3/1 18/3/1 20/3/1
f 22/3/1 18/3/1 21/3/1
f 23/1/1 20/1/1 19/1/1
f 24/3/1 21/3/1 20/3/1
f 24/1/1 20/1/1 23/1/1
f 25/3/1 21/3/1 24/3/1
f 26/3/1 18/3/1 22/3/1
f 27/3/1 25/3/1 24/3/1
f 27/3/1 26/3/1 25/3/1
f 27/3/1 24/3/1 23/3/1
f 28/3/1 26/3/1 27/3/1
f 29/3/1 18/3/1 26/3/1
f 29/3/1 26/3/1 28/3/1
f 30/3/1 18/3/1 29/3/1
f 31/3/1 29/3/1 28/3/1
f 32/3/1 29/3/1 31/3/1
f 37/3/1 34/3/1 33/3/1
f 38/3/1 34/3/1 37/3/1
f 39/3/1 36/3/1 35/3/1
f 40/3/1 36/3/1 39/3/1
f 45/3/1 42/3/1 41/3/1
f 46/3/1 42/3/1 45/3/1
f 47/3/1 44/3/1 43/3/1
f 48/3/1 44/3/1 47/3/1
f 49/3/1 47/3/1 46/3/1
f 50/3/1 47/3/1 49/3/1
f 53/5/1 52/5/1 51/5/1
f 54/5/1 52/5/1 53/5/1
f 57/5/1 56/5/1 55/5/1
f 58/5/1 56/5/1 57/5/1
f 61/5/1 60/5/1 59/5/1
f 62/5/1 60/5/1 61/5/1
f 63/5/2 64/5/2 65/5/2
f 65/5/2 64/5/2 66/5/2
f 67/5/2 68/5/2 69/5/2
f 69/5/2 68/5/2 70/5/2
f 71/5/2 72/5/2 73/5/2
f 73/5/2 72/5/2 74/5/2
f 75/3/2 76/3/2 79/3/2
f 79/3/2 76/3/2 80/3/2
f 77/3/2 78/3/2 81/3/2
f 81/3/2 78/3/2 82/3/2
f 83/3/2 84/3/2 87/3/2
f 87/3/2 84/3/2 88/3/2
f 85/3/2 86/3/2 89/3/2
f 89/3/2 86/3/2 90/3/2
f 88/3/2 89/3/2 91/3/2
f 91/3/2 89/3/2 92/3/2
f 93/5/2 94/5/2 96/5/2
f 96/5/2 94/5/2 97/5/2
f 95/3/2 96/3/2 100/3/2
f 97/3/2 98/3/2 100/3/2
f 96/3/2 97/3/2 100/3/2
f 100/3/2 98/3/2 101/3/2
f 99/3/2 100/3/2 103/3/2
f 101/3/2 102/3/2 103/3/2
f 100/3/2 101/3/2 103/3/2
f 103/3/2 102/3/2 104/3/2
f 104/3/2 102/3/2 105/3/2
f 105/3/2 102/3/2 106/3/2
f 103/1/2 104/1/2 107/1/2
f 104/3/2 105/3/2 108/3/2
f 107/1/2 104/1/2 108/1/2
f 108/3/2 105/3/2 109/3/2
f 106/3/2 102/3/2 110/3/2
f 108/3/2 109/3/2 111/3/2
f 109/3/2 110/3/2 111/3/2
f 107/3/2 108/3/2 111/3/2
f 111/3/2 110/3/2 112/3/2
f 110/3/2 102/3/2 113/3/2
f 112/3/2 110/3/2 113/3/2
f 113/3/2 102/3/2 114/3/2
f 112/3/2 113/3/2 115/3/2
f 115/3/2 113/3/2 116/3/2
f 117/2/2 118/2/2 119/2/2
f 119/2/2 118/2/2 120/2/2
f 121/5/2 122/5/2 123/5/2
f 123/5/2 122/5/2 124/5/2
f 125/5/2 126/5/2 127/5/2
f 127/5/2 126/5/2 128/5/2
f 134/3/3 130/3/3 129/3/3
f 135/1/3 131/1/3 130/1/3
f 135/3/3 130/3/3 134/3/3
f 136/3/3 132/3/3 131/3/3
f 136/1/3 131/1/3 135/1/3
f 137/3/3 132/3/3 136/3/3
f 139/3/3 135/3/3 134/3/3
f 139/3/3 134/3/3 133/3/3
f 139/4/3 137/4/3 136/4/3
f 139/3/3 136/3/3 135/3/3
f 140/3/3 138/3/3 137/3/3
f 140/4/3 137/4/3 139/4/3
f 141/3/3 139/3/3 133/3/3
f 141/3/3 140/3/3 139/3/3
f 142/3/3 138/3/3 140/3/3
f 142/3/3 140/3/3 141/3/3
f 143/3/3 141/3/3 133/3/3
f 144/3/3 141/3/3 143/3/3
f 145/3/3 141/3/3 144/3/3
f 146/4/3 142/4/3 141/4/3
f 146/3/3 141/3/3 145/3/3
f 147/3/3 138/3/3 142/3/3
f 147/4/3 142/4/3 146/4/3
f 148/3/3 138/3/3 147/3/3
f 149/3/3 145/3/3 144/3/3
f 150/1/3 146/1/3 145/1/3
f 150/3/3 145/3/3 149/3/3
f 151/3/3 147/3/3 146/3/3
f 151/1/3 146/1/3 150/1/3
f 152/3/3 147/3/3 151/3/3
f 157/3/3 154/3/3 153/3/3
f 158/3/3 154/3/3 157/3/3
f 159/3/3 156/3/3 155/3/3
f 160/3/3 156/3/3 159/3/3
f 165/3/3 161/3/3 160/3/3
f 166/3/3 161/3/3 165/3/3
f 167/3/3 163/3/3 162/3/3
f 168/3/3 163/3/3 167/3/3
f 169/3/3 165/3/3 164/3/3
f 170/3/3 165/3/3 169/3/3
f 175/5/3 172/5/3 171/5/3
f 176/5/3 172/5/3 175/5/3
f 177/5/3 174/5/3 173/5/3
f 179/5/3 175/5/3 171/5/3
f 180/5/3 175/5/3 179/5/3
f 181/5/3 178/5/3 177/5/3
f 181/5/3 177/5/3 173/5/3
f 182/5/3 178/5/3 181/5/3
f 185/5/3 184/5/3 183/5/3
f 186/5/3 184/5/3 185/5/3
f 189/5/3 184/5/3 186/5/3
f 190/5/3 184/5/3 189/5/3
f 191/5/3 188/5/3 187/5/3
f 192/5/3 188/5/3 191/5/3
f 195/2/3 190/2/3 189/2/3
f 196/2/3 190/2/3 195/2/3
f 197/5/3 191/5/3 187/5/3
f 198/5/3 191/5/3 197/5/3
f 199/5/3 194/5/3 193/5/3
f 201/5/3 200/5/3 199/5/3
f 201/5/3 199/5/3 193/5/3
f 202/5/3 200/5/3 201/5/3
f 203/5/4 204/5/4 207/5/4
f 207/5/4 204/5/4 208/5/4
f 205/5/4 206/5/4 209/5/4
f 203/5/4 207/5/4 211/5/4
f 211/5/4 207/5/4 212/5/4
f 209/5/4 210/5/4 213/5/4
f 205/5/4 209/5/4 213/5/4
f 213/5/4 210/5/4 214/5/4
f 215/5/4 216/5/4 217/5/4
f 217/5/4 216/5/4 218/5/4
f 218/5/4 216/5/4 221/5/4
f 221/5/4 216/5/4 222/5/4
f 219/5/4 220/5/4 223/5/4
f 223/5/4 220/5/4 224/5/4
f 221/2/4 222/2/4 227/2/4
f 227/2/4 222/2/4 228/2/4
f 219/5/4 223/5/4 229/5/4
f 229/5/4 223/5/4 230/5/4
f 225/5/4 226/5/4 231/5/4
f 231/5/4 232/5/4 233/5/4
f 225/5/4 231/5/4 233/5/4
f 233/5/4 232/5/4 234/5/4
f 235/3/4 236/3/4 239/3/4
f 239/3/4 236/3/4 240/3/4
f 237/3/4 238/3/4 241/3/4
f 241/3/4 238/3/4 242/3/4
f 242/3/4 243/3/4 247/3/4
f 247/3/4 243/3/4 248/3/4
f 244/3/4 245/3/4 249/3/4
f 249/3/4 245/3/4 250/3/4
f 246/3/4 247/3/4 251/3/4
f 251/3/4 247/3/4 252/3/4
f 253/3/4 254/3/4 256/3/4
f 256/3/4 254/3/4 257/3/4
f 255/3/4 256/3/4 259/3/4
f 257/3/4 258/3/4 259/3/4
f 256/3/4 257/3/4 259/3/4
f 259/3/4 258/3/4 260/3/4
f 260/3/4 258/3/4 261/3/4
f 261/3/4 258/3/4 262/3/4
f 260/3/4 261/3/4 263/3/4
f 263/3/4 261/3/4 264/3/4
f 269/5/5 266/5/5 265/5/5
f 270/5/5 266/5/5 269/5/5
f 271/5/5 268/5/5 267/5/5
f 272/5/5 268/5/5 271/5/5
f 276/3/5 274/3/5 273/3/5
f 277/3/5 274/3/5 276/3/5
f 279/3/5 276/3/5 275/3/5
f 279/3/5 278/3/5 277/3/5
f 279/3/5 277/3/5 276/3/5
f 280/3/5 278/3/5 279/3/5
f 281/3/5 278/3/5 280/3/5
f 282/3/5 278/3/5 281/3/5
f 284/3/5 281/3/5 280/3/5
f 285/3/5 281/3/5 284/3/5
f 287/3/5 284/3/5 283/3/5
f 287/3/5 286/3/5 285/3/5
f 287/3/5 285/3/5 284/3/5
f 288/3/5 286/3/5 287/3/5
f 289/3/5 286/3/5 288/3/5
f 290/3/5 286/3/5 289/3/5
f 291/3/5 289/3/5 288/3/5
f 292/3/5 289/3/5 291/3/5
f 297/3/5 294/3/5 293/3/5
f 298/3/5 294/3/5 297/3/5
f 299/3/5 296/3/5 295/3/5
f 300/3/5 296/3/5 299/3/5
f 305/3/5 302/3/5 301/3/5
f 306/3/5 302/3/5 305/3/5
f 307/3/5 304/3/5 303/3/5
f 308/3/5 304/3/5 307/3/5
f 313/5/5 310/5/5 309/5/5
f 314/5/5 310/5/5 313/5/5
f 315/5/5 312/5/5 311/5/5
f 316/5/5 312/5/5 315/5/5
f 320/5/5 318/5/5 317/5/5
f 321/2/5 319/2/5 318/2/5
f 321/5/5 318/5/5 320/5/5
f 322/2/5 319/2/5 321/2/5
f 323/5/6 324/5/6 327/5/6
f 327/5/6 324/5/6 328/5/6
f 325/5/6 326/5/6 329/5/6
f 329/5/6 326/5/6 330/5/6
f 331/5/6 332/5/6 335/5/6
f 335/5/6 332/5/6 336/5/6
f 333/5/6 334/5/6 337/5/6
f 337/5/6 334/5/6 338/5/6
f 339/3/6 340/3/6 343/3/6
f 343/3/6 340/3/6 344/3/6
f 341/3/6 342/3/6 345/3/6
f 345/3/6 342/3/6 346/3/6
f 347/3/6 348/3/6 351/3/6
f 351/3/6 348/3/6 352/3/6
f 349/3/6 350/3/6 353/3/6
f 353/3/6 350/3/6 354/3/6
f 355/3/6 356/3/6 358/3/6
f 358/3/6 356/3/6 359/3/6
f 361/5/6 362/5/6 365/5/6
f 365/5/6 362/5/6 366/5/6
f 363/5/6 364/5/6 367/5/6
f 367/5/6 364/5/6 368/5/6
f 357/3/6 358/3/6 369/3/6
f 369/3/6 358/3/6 370/3/6
f 359/3/6 360/3/6 371/3/6
f 371/3/6 360/3/6 372/3/6
f 370/3/6 371/3/6 373/3/6
f 373/3/6 371/3/6 374/3/6
f 375/3/6 376/3/6 377/3/6
f 377/3/6 376/3/6 378/3/6
f 375/3/6 377/3/6 379/3/6
f 378/3/6 376/3/6 380/3/6
f 375/3/6 379/3/6 381/3/6
f 379/3/6 380/3/6 381/3/6
f 380/3/6 376/3/6 382/3/6
f 381/3/6 380/3/6 382/3/6
f 383/5/6 384/5/6 386/5/6
f 384/2/6 385/2/6 387/2/6
f 386/5/6 384/5/6 387/5/6
f 387/2/6 385/2/6 388/2/6
