# MagicaVoxel @ Ephtracy

# group
g hermesboot

# material
mtllib hermesboot.mtl
usemtl palette

# normals
vn -1 0 0
vn 1 0 0
vn 0 0 1
vn 0 0 -1
vn 0 -1 0
vn 0 1 0

# texcoords
vt 0.0214844 0.5
vt 0.365234 0.5
vt 0.962891 0.5

# verts
v -4 2 1.5
v -4 2 -0.5
v -4 3 0.5
v -4 3 -0.5
v -4 4 1.5
v -4 4 0.5
v -4 4 -0.5
v -4 4 -1.5
v -4 5 -1.5
v -4 5 -2.5
v -4 6 -2.5
v -4 6 -3.5
v -4 7 0.5
v -4 7 -0.5
v -4 7 -3.5
v -4 7 -4.5
v -4 8 -0.5
v -4 8 -1.5
v -4 9 -1.5
v -4 9 -4.5
v -3 0 4.5
v -3 0 -3.5
v -3 2 1.5
v -3 2 -0.5
v -3 3 4.5
v -3 3 1.5
v -3 3 -0.5
v -3 4 1.5
v -3 4 0.5
v -3 4 -0.5
v -3 4 -1.5
v -3 5 -1.5
v -3 5 -2.5
v -3 6 1.5
v -3 6 0.5
v -3 6 -2.5
v -3 6 -3.5
v 3 6 0.5
v 3 6 -3.5
v 3 7 0.5
v 3 7 -0.5
v 3 7 -3.5
v 3 7 -4.5
v 3 8 -0.5
v 3 8 -1.5
v 3 9 -1.5
v 3 9 -4.5
v -3 6 0.5
v -3 6 -3.5
v -3 7 0.5
v -3 7 -0.5
v -3 7 -3.5
v -3 7 -4.5
v -3 8 -0.5
v -3 8 -1.5
v -3 9 -1.5
v -3 9 -4.5
v 3 0 4.5
v 3 0 -3.5
v 3 2 1.5
v 3 2 -0.5
v 3 3 4.5
v 3 3 1.5
v 3 3 -0.5
v 3 4 1.5
v 3 4 0.5
v 3 4 -0.5
v 3 4 -1.5
v 3 5 -1.5
v 3 5 -2.5
v 3 6 1.5
v 3 6 0.5
v 3 6 -2.5
v 3 6 -3.5
v 4 2 1.5
v 4 2 -0.5
v 4 3 0.5
v 4 3 -0.5
v 4 4 1.5
v 4 4 0.5
v 4 4 -0.5
v 4 4 -1.5
v 4 5 -1.5
v 4 5 -2.5
v 4 6 -2.5
v 4 6 -3.5
v 4 7 0.5
v 4 7 -0.5
v 4 7 -3.5
v 4 7 -4.5
v 4 8 -0.5
v 4 8 -1.5
v 4 9 -1.5
v 4 9 -4.5
v -3 0 4.5
v -3 3 4.5
v 3 0 4.5
v 3 3 4.5
v -4 2 1.5
v -4 4 1.5
v -3 2 1.5
v -3 3 1.5
v -3 4 1.5
v -3 6 1.5
v 3 2 1.5
v 3 3 1.5
v 3 4 1.5
v 3 6 1.5
v 4 2 1.5
v 4 4 1.5
v -4 4 0.5
v -4 7 0.5
v -3 4 0.5
v -3 6 0.5
v -3 7 0.5
v 3 4 0.5
v 3 6 0.5
v 3 7 0.5
v 4 4 0.5
v 4 7 0.5
v -4 7 -0.5
v -4 8 -0.5
v -3 7 -0.5
v -3 8 -0.5
v 3 7 -0.5
v 3 8 -0.5
v 4 7 -0.5
v 4 8 -0.5
v -4 8 -1.5
v -4 9 -1.5
v -3 8 -1.5
v -3 9 -1.5
v 3 8 -1.5
v 3 9 -1.5
v 4 8 -1.5
v 4 9 -1.5
v -4 2 -0.5
v -4 3 -0.5
v -4 4 -0.5
v -3 2 -0.5
v -3 3 -0.5
v -3 4 -0.5
v 3 2 -0.5
v 3 3 -0.5
v 3 4 -0.5
v 4 2 -0.5
v 4 3 -0.5
v 4 4 -0.5
v -4 4 -1.5
v -4 5 -1.5
v -3 4 -1.5
v -3 5 -1.5
v 3 4 -1.5
v 3 5 -1.5
v 4 4 -1.5
v 4 5 -1.5
v -4 5 -2.5
v -4 6 -2.5
v -3 5 -2.5
v -3 6 -2.5
v 3 5 -2.5
v 3 6 -2.5
v 4 5 -2.5
v 4 6 -2.5
v -4 6 -3.5
v -4 7 -3.5
v -3 0 -3.5
v -3 6 -3.5
v -3 7 -3.5
v 3 0 -3.5
v 3 6 -3.5
v 3 7 -3.5
v 4 6 -3.5
v 4 7 -3.5
v -4 7 -4.5
v -4 9 -4.5
v -3 7 -4.5
v -3 9 -4.5
v 3 7 -4.5
v 3 9 -4.5
v 4 7 -4.5
v 4 9 -4.5
v -3 0 4.5
v 3 0 4.5
v -3 0 -3.5
v 3 0 -3.5
v -4 2 1.5
v -3 2 1.5
v 3 2 1.5
v 4 2 1.5
v -4 2 -0.5
v -3 2 -0.5
v 3 2 -0.5
v 4 2 -0.5
v -4 4 -0.5
v -3 4 -0.5
v 3 4 -0.5
v 4 4 -0.5
v -4 4 -1.5
v -3 4 -1.5
v 3 4 -1.5
v 4 4 -1.5
v -4 5 -1.5
v -3 5 -1.5
v 3 5 -1.5
v 4 5 -1.5
v -4 5 -2.5
v -3 5 -2.5
v 3 5 -2.5
v 4 5 -2.5
v -4 6 -2.5
v -3 6 -2.5
v 3 6 -2.5
v 4 6 -2.5
v -4 6 -3.5
v -3 6 -3.5
v 3 6 -3.5
v 4 6 -3.5
v -4 7 -3.5
v -3 7 -3.5
v 3 7 -3.5
v 4 7 -3.5
v -4 7 -4.5
v -3 7 -4.5
v 3 7 -4.5
v 4 7 -4.5
v -3 3 4.5
v 3 3 4.5
v -3 3 1.5
v 3 3 1.5
v -4 4 1.5
v -3 4 1.5
v 3 4 1.5
v 4 4 1.5
v -4 4 0.5
v -3 4 0.5
v 3 4 0.5
v 4 4 0.5
v -3 6 1.5
v 3 6 1.5
v -3 6 0.5
v 3 6 0.5
v -3 6 -3.5
v 3 6 -3.5
v -4 7 0.5
v -3 7 0.5
v 3 7 0.5
v 4 7 0.5
v -4 7 -0.5
v -3 7 -0.5
v 3 7 -0.5
v 4 7 -0.5
v -4 8 -0.5
v -3 8 -0.5
v 3 8 -0.5
v 4 8 -0.5
v -4 8 -1.5
v -3 8 -1.5
v 3 8 -1.5
v 4 8 -1.5
v -4 9 -1.5
v -3 9 -1.5
v 3 9 -1.5
v 4 9 -1.5
v -4 9 -4.5
v -3 9 -4.5
v 3 9 -4.5
v 4 9 -4.5

# faces
f 3/1/1 2/1/1 1/1/1
f 4/1/1 2/1/1 3/1/1
f 5/1/1 3/1/1 1/1/1
f 6/3/1 4/3/1 3/3/1
f 6/1/1 3/1/1 5/1/1
f 7/3/1 4/3/1 6/3/1
f 9/3/1 7/3/1 6/3/1
f 9/3/1 8/3/1 7/3/1
f 11/3/1 10/3/1 9/3/1
f 13/3/1 9/3/1 6/3/1
f 13/3/1 12/3/1 11/3/1
f 13/3/1 11/3/1 9/3/1
f 14/3/1 12/3/1 13/3/1
f 15/3/1 12/3/1 14/3/1
f 17/3/1 16/3/1 15/3/1
f 17/3/1 15/3/1 14/3/1
f 18/3/1 16/3/1 17/3/1
f 19/3/1 16/3/1 18/3/1
f 20/3/1 16/3/1 19/3/1
f 23/2/1 22/2/1 21/2/1
f 24/2/1 22/2/1 23/2/1
f 25/2/1 23/2/1 21/2/1
f 26/2/1 23/2/1 25/2/1
f 27/2/1 22/2/1 24/2/1
f 30/2/1 22/2/1 27/2/1
f 31/2/1 22/2/1 30/2/1
f 32/2/1 22/2/1 31/2/1
f 33/2/1 22/2/1 32/2/1
f 34/2/1 29/2/1 28/2/1
f 35/2/1 29/2/1 34/2/1
f 36/2/1 22/2/1 33/2/1
f 37/2/1 22/2/1 36/2/1
f 40/3/1 39/3/1 38/3/1
f 41/3/1 39/3/1 40/3/1
f 42/3/1 39/3/1 41/3/1
f 44/3/1 43/3/1 42/3/1
f 44/3/1 42/3/1 41/3/1
f 45/3/1 43/3/1 44/3/1
f 46/3/1 43/3/1 45/3/1
f 47/3/1 43/3/1 46/3/1
f 48/3/2 49/3/2 50/3/2
f 50/3/2 49/3/2 51/3/2
f 51/3/2 49/3/2 52/3/2
f 52/3/2 53/3/2 54/3/2
f 51/3/2 52/3/2 54/3/2
f 54/3/2 53/3/2 55/3/2
f 55/3/2 53/3/2 56/3/2
f 56/3/2 53/3/2 57/3/2
f 58/2/2 59/2/2 60/2/2
f 60/2/2 59/2/2 61/2/2
f 58/2/2 60/2/2 62/2/2
f 62/2/2 60/2/2 63/2/2
f 61/2/2 59/2/2 64/2/2
f 64/2/2 59/2/2 67/2/2
f 67/2/2 59/2/2 68/2/2
f 68/2/2 59/2/2 69/2/2
f 69/2/2 59/2/2 70/2/2
f 65/2/2 66/2/2 71/2/2
f 71/2/2 66/2/2 72/2/2
f 70/2/2 59/2/2 73/2/2
f 73/2/2 59/2/2 74/2/2
f 75/1/2 76/1/2 77/1/2
f 77/1/2 76/1/2 78/1/2
f 75/1/2 77/1/2 79/1/2
f 77/3/2 78/3/2 80/3/2
f 79/1/2 77/1/2 80/1/2
f 80/3/2 78/3/2 81/3/2
f 80/3/2 81/3/2 83/3/2
f 81/3/2 82/3/2 83/3/2
f 83/3/2 84/3/2 85/3/2
f 80/3/2 83/3/2 87/3/2
f 85/3/2 86/3/2 87/3/2
f 83/3/2 85/3/2 87/3/2
f 87/3/2 86/3/2 88/3/2
f 88/3/2 86/3/2 89/3/2
f 89/3/2 90/3/2 91/3/2
f 88/3/2 89/3/2 91/3/2
f 91/3/2 90/3/2 92/3/2
f 92/3/2 90/3/2 93/3/2
f 93/3/2 90/3/2 94/3/2
f 97/2/3 96/2/3 95/2/3
f 98/2/3 96/2/3 97/2/3
f 101/1/3 100/1/3 99/1/3
f 102/1/3 100/1/3 101/1/3
f 103/1/3 100/1/3 102/1/3
f 106/2/3 104/2/3 103/2/3
f 106/2/3 103/2/3 102/2/3
f 107/2/3 104/2/3 106/2/3
f 108/2/3 104/2/3 107/2/3
f 109/1/3 106/1/3 105/1/3
f 109/1/3 107/1/3 106/1/3
f 110/1/3 107/1/3 109/1/3
f 113/3/3 112/3/3 111/3/3
f 114/3/3 112/3/3 113/3/3
f 115/3/3 112/3/3 114/3/3
f 119/3/3 117/3/3 116/3/3
f 119/3/3 118/3/3 117/3/3
f 120/3/3 118/3/3 119/3/3
f 123/3/3 122/3/3 121/3/3
f 124/3/3 122/3/3 123/3/3
f 127/3/3 126/3/3 125/3/3
f 128/3/3 126/3/3 127/3/3
f 131/3/3 130/3/3 129/3/3
f 132/3/3 130/3/3 131/3/3
f 135/3/3 134/3/3 133/3/3
f 136/3/3 134/3/3 135/3/3
f 137/1/4 138/1/4 140/1/4
f 138/3/4 139/3/4 141/3/4
f 140/1/4 138/1/4 141/1/4
f 141/3/4 139/3/4 142/3/4
f 143/1/4 144/1/4 146/1/4
f 144/3/4 145/3/4 147/3/4
f 146/1/4 144/1/4 147/1/4
f 147/3/4 145/3/4 148/3/4
f 149/3/4 150/3/4 151/3/4
f 151/3/4 150/3/4 152/3/4
f 153/3/4 154/3/4 155/3/4
f 155/3/4 154/3/4 156/3/4
f 157/3/4 158/3/4 159/3/4
f 159/3/4 158/3/4 160/3/4
f 161/3/4 162/3/4 163/3/4
f 163/3/4 162/3/4 164/3/4
f 165/3/4 166/3/4 168/3/4
f 168/3/4 166/3/4 169/3/4
f 167/2/4 168/2/4 170/2/4
f 170/2/4 168/2/4 171/2/4
f 171/3/4 172/3/4 173/3/4
f 173/3/4 172/3/4 174/3/4
f 175/3/4 176/3/4 177/3/4
f 177/3/4 176/3/4 178/3/4
f 179/3/4 180/3/4 181/3/4
f 181/3/4 180/3/4 182/3/4
f 185/2/5 184/2/5 183/2/5
f 186/2/5 184/2/5 185/2/5
f 191/1/5 188/1/5 187/1/5
f 192/1/5 188/1/5 191/1/5
f 193/1/5 190/1/5 189/1/5
f 194/1/5 190/1/5 193/1/5
f 199/3/5 196/3/5 195/3/5
f 200/3/5 196/3/5 199/3/5
f 201/3/5 198/3/5 197/3/5
f 202/3/5 198/3/5 201/3/5
f 207/3/5 204/3/5 203/3/5
f 208/3/5 204/3/5 207/3/5
f 209/3/5 206/3/5 205/3/5
f 210/3/5 206/3/5 209/3/5
f 215/3/5 212/3/5 211/3/5
f 216/3/5 212/3/5 215/3/5
f 217/3/5 214/3/5 213/3/5
f 218/3/5 214/3/5 217/3/5
f 223/3/5 220/3/5 219/3/5
f 224/3/5 220/3/5 223/3/5
f 225/3/5 222/3/5 221/3/5
f 226/3/5 222/3/5 225/3/5
f 227/2/6 228/2/6 229/2/6
f 229/2/6 228/2/6 230/2/6
f 231/1/6 232/1/6 235/1/6
f 235/1/6 232/1/6 236/1/6
f 233/1/6 234/1/6 237/1/6
f 237/1/6 234/1/6 238/1/6
f 239/2/6 240/2/6 241/2/6
f 241/2/6 240/2/6 242/2/6
f 241/2/6 242/2/6 243/2/6
f 243/2/6 242/2/6 244/2/6
f 245/3/6 246/3/6 249/3/6
f 249/3/6 246/3/6 250/3/6
f 247/3/6 248/3/6 251/3/6
f 251/3/6 248/3/6 252/3/6
f 253/3/6 254/3/6 257/3/6
f 257/3/6 254/3/6 258/3/6
f 255/3/6 256/3/6 259/3/6
f 259/3/6 256/3/6 260/3/6
f 261/3/6 262/3/6 265/3/6
f 265/3/6 262/3/6 266/3/6
f 263/3/6 264/3/6 267/3/6
f 267/3/6 264/3/6 268/3/6
